<mxfile host="app.diagrams.net" modified="2023-11-21T19:03:10.400Z" agent="Mozilla/5.0 (Windows NT 10.0; Win64; x64) AppleWebKit/537.36 (KHTML, like Gecko) Chrome/119.0.0.0 Safari/537.36 Edg/119.0.0.0" etag="-Yext3r32CzWyKjluL2R" version="21.7.5" type="github">
  <diagram name="Page-1" id="ad52d381-51e7-2e0d-a935-2d0ddd2fd229">
    <mxGraphModel dx="1649" dy="715" grid="1" gridSize="10" guides="1" tooltips="1" connect="1" arrows="1" fold="1" page="1" pageScale="1" pageWidth="1100" pageHeight="850" background="none" math="0" shadow="0">
      <root>
        <mxCell id="0" />
        <mxCell id="1" parent="0" />
        <mxCell id="-rXgOsJJmrJ9lBnBzc6E-1" value="Patient" style="rounded=1;whiteSpace=wrap;html=1;" vertex="1" parent="1">
          <mxGeometry x="218" y="187" width="120" height="60" as="geometry" />
        </mxCell>
        <mxCell id="-rXgOsJJmrJ9lBnBzc6E-2" value="Physician" style="rounded=1;whiteSpace=wrap;html=1;" vertex="1" parent="1">
          <mxGeometry x="628" y="179" width="120" height="60" as="geometry" />
        </mxCell>
        <mxCell id="-rXgOsJJmrJ9lBnBzc6E-3" value="Symptom_log" style="rounded=1;whiteSpace=wrap;html=1;" vertex="1" parent="1">
          <mxGeometry x="78" y="357" width="120" height="60" as="geometry" />
        </mxCell>
        <mxCell id="-rXgOsJJmrJ9lBnBzc6E-4" value="Appointments" style="rounded=1;whiteSpace=wrap;html=1;" vertex="1" parent="1">
          <mxGeometry x="468" y="347" width="120" height="60" as="geometry" />
        </mxCell>
        <mxCell id="-rXgOsJJmrJ9lBnBzc6E-5" value="Med_compliance" style="rounded=1;whiteSpace=wrap;html=1;" vertex="1" parent="1">
          <mxGeometry x="888" y="367" width="120" height="60" as="geometry" />
        </mxCell>
        <mxCell id="-rXgOsJJmrJ9lBnBzc6E-7" value="Edu_content" style="rounded=1;whiteSpace=wrap;html=1;" vertex="1" parent="1">
          <mxGeometry x="190" y="20" width="120" height="60" as="geometry" />
        </mxCell>
        <mxCell id="-rXgOsJJmrJ9lBnBzc6E-8" value="Insurance" style="rounded=1;whiteSpace=wrap;html=1;" vertex="1" parent="1">
          <mxGeometry x="420" y="30" width="120" height="60" as="geometry" />
        </mxCell>
        <mxCell id="-rXgOsJJmrJ9lBnBzc6E-9" value="holds" style="rhombus;whiteSpace=wrap;html=1;" vertex="1" parent="1">
          <mxGeometry x="410" y="200" width="60" height="40" as="geometry" />
        </mxCell>
      </root>
    </mxGraphModel>
  </diagram>
</mxfile>
